<svg xmlns="http://www.w3.org/2000/svg" width="45.017" height="34.744"><defs><style>.b,.c{fill:none;stroke:#fff;stroke-width:2px}.c{stroke-linejoin:round}.b{stroke-miterlimit:10}</style></defs><path fill="none" stroke="#fff" stroke-linecap="round" stroke-linejoin="round" stroke-width="2" d="M1 2.31h6.94l3.97 19.14s.1.4.12.5c.9 4.95 3.45 6.02 6.05 6.02h14.04"/><path d="M35.36 30.86a2.88 2.88 0 11-2.88-2.88 2.88 2.88 0 012.88 2.88z" class="b"/><path d="M36.14 16.99l-1.26 4.52H12.11M9.26 7.7L27.9 8.99" class="c"/><path d="M19.06 30.86a2.88 2.88 0 11-2.88-2.88 2.88 2.88 0 012.88 2.88zM23.35 8.72v12.63" class="b"/><path fill="none" stroke="#fff" stroke-linejoin="bevel" stroke-width="2" d="M10.78 14.8h19.49l-.93 6.49"/><path d="M15.57 8.16l1.88 13.3M44.02 7.9A6.91 6.91 0 1137.1 1 6.91 6.91 0 0144 7.9zM37.1 4.53v6.75M40.48 7.9h-6.75" class="b"/></svg>