<svg xmlns="http://www.w3.org/2000/svg" width="27.823" height="37.5"><path fill="#fff" stroke="#fff" stroke-width="1.5" d="M13.91 36.75a.55.55 0 01-.36-.13C12.25 35.52.75 25.46.75 13.96A13.2 13.2 0 0113.83.75H14a13.2 13.2 0 0113.08 13.2c0 11.5-11.5 21.55-12.8 22.66a.55.55 0 01-.37.13zm0-34.9h-.04a12.13 12.13 0 00-12.02 12.1c0 10.3 9.78 19.5 12.06 21.51 2.29-2 12.06-11.2 12.06-21.51a12.13 12.13 0 00-12.02-12.1h-.05zm0 18.46a6.33 6.33 0 116.33-6.33 6.34 6.34 0 01-6.33 6.33zm0-11.56a5.23 5.23 0 105.23 5.23 5.23 5.23 0 00-5.23-5.23z"/></svg>