<svg xmlns="http://www.w3.org/2000/svg" width="25.377" height="23.685" viewBox="0 0 25.377 23.685"><defs><style>.a{fill:#fff;}</style></defs><g transform="translate(-1620 -852)"><g transform="translate(1626.767 870.61)"><path class="a" d="M1718.538,1121.075a2.538,2.538,0,1,1,2.538-2.538A2.541,2.541,0,0,1,1718.538,1121.075Zm0-3.384a.846.846,0,1,0,.846.846A.847.847,0,0,0,1718.538,1117.692Z" transform="translate(-1716 -1116)"/></g><g transform="translate(1637.764 870.61)"><path class="a" d="M1874.538,1121.075a2.538,2.538,0,1,1,2.538-2.538A2.541,2.541,0,0,1,1874.538,1121.075Zm0-3.384a.846.846,0,1,0,.846.846A.847.847,0,0,0,1874.538,1117.692Z" transform="translate(-1872 -1116)"/></g><g transform="translate(1620 852)"><path class="a" d="M1642.1,869.764h-14.65a1.7,1.7,0,0,1-1.656-1.335l-2.349-11.162-.007-.034-.744-3.542h-1.851a.846.846,0,1,1,0-1.692h1.851a1.7,1.7,0,0,1,1.656,1.344l.606,2.885h19.573a.846.846,0,0,1,.837.966l-1.59,11.115A1.7,1.7,0,0,1,1642.1,869.764Zm-16.789-11.843,2.137,10.154,14.652,0,1.452-10.151Z" transform="translate(-1620 -852)"/></g><g transform="translate(1633.534 859.613)"><path class="a" d="M1812.846,966.767a.846.846,0,0,1-.846-.846v-5.075a.846.846,0,1,1,1.692,0v5.075A.846.846,0,0,1,1812.846,966.767Z" transform="translate(-1812 -960)"/></g><g transform="translate(1630.997 862.151)"><path class="a" d="M1781.921,997.692h-5.075a.846.846,0,0,1,0-1.692h5.075a.846.846,0,1,1,0,1.692Z" transform="translate(-1776 -996)"/></g></g></svg>